# xmcd CD database file
#
# Track frame offsets:
#	150
#	10789
#	61214
#	70187
#	111777
#	147714
#	198184
#	256484
#
# Disc length: 4068 seconds
#
# Revision: 0
# Processed by: cddbd v1.5.2PL0 Copyright (c) Steve Scherf et al.
# Submitted via: CDex 1.51
#
DISCID=700fe208
DTITLE=Janek Gwizdala - Live At The 55Bar
DYEAR=2008
DGENRE=Jazz
TTITLE0=Intro
TTITLE1=Culture
TTITLE2=Mana Story
TTITLE3=Mana
TTITLE4=Alibea
TTITLE5=That Stern Look
TTITLE6=Aphelion
TTITLE7=Bonus Track: Mana
EXTD=YEAR: 2008
EXTT0=
EXTT1=
EXTT2=
EXTT3=
EXTT4=
EXTT5=
EXTT6=
EXTT7=
PLAYORDER=
